<svg width="100%" height="100%" viewBox="0 0 91 91" fill="none" xmlns="http://www.w3.org/2000/svg">
<g clip-path="url(#clip0)">
<path d="M19.73 15.98H8.47998V12.23H19.73V15.98ZM49.73 38.48C43.5275 38.48 38.48 43.5275 38.48 49.73C38.48 55.9325 43.5275 60.98 49.73 60.98C55.9325 60.98 60.98 55.9325 60.98 49.73C60.98 43.5275 55.9325 38.48 49.73 38.48ZM90.98 19.73V83.48H0.97998V19.73H23.2175C25.7262 19.73 28.0662 18.4775 29.4575 16.3887L34.73 8.47998H64.73L70.0025 16.3887C71.3937 18.4775 73.7337 19.73 76.2425 19.73H90.98ZM19.73 34.73C19.73 32.66 18.0537 30.98 15.98 30.98C13.9062 30.98 12.23 32.66 12.23 34.73C12.23 36.8 13.9062 38.48 15.98 38.48C18.0537 38.48 19.73 36.8 19.73 34.73ZM68.48 49.73C68.48 39.3762 60.0837 30.98 49.73 30.98C39.3762 30.98 30.98 39.3762 30.98 49.73C30.98 60.0837 39.3762 68.48 49.73 68.48C60.0837 68.48 68.48 60.0837 68.48 49.73Z" fill="white"/>
</g>
<defs>
<clipPath id="clip0">
<rect width="90" height="90" fill="white" transform="translate(0.97998 0.97998)"/>
</clipPath>
</defs>
</svg>
