<svg width="50" height="50" viewBox="0 0 50 50" fill="none" xmlns="http://www.w3.org/2000/svg">
<path fill-rule="evenodd" clip-rule="evenodd" d="M33.2667 22.9167L45.8333 46.7979C45.8333 46.7979 41.4333 48.4729 34.2625 49.4L31.25 41.6667L32.15 49.6417C29.9375 49.8604 27.5083 50 24.9021 50C22.3625 50 20.0021 49.8687 17.85 49.6583L18.75 41.6667L15.7292 49.4188C8.52501 48.4958 4.16667 46.7979 4.16667 46.7979L16.9333 22.9167H33.2667ZM16.9688 20.8333L14.5479 12.3125L9.46459 13.9667L6.25001 8.90625L16.6667 0C16.6667 0 20.9146 2.08333 25 2.08333C29.0854 2.08333 33.2875 0 33.2875 0L43.75 8.90625L40.5354 13.9667L35.4521 12.3125L33.2104 20.8333H16.9688ZM17.7229 2.68958C17.7229 2.68958 20.8417 4.16667 25 4.16667C29.1583 4.16667 32.3875 2.69375 32.3875 2.69375C32.3875 2.69375 30.2458 8.33333 25 8.33333C19.7542 8.33333 17.7229 2.68958 17.7229 2.68958Z" fill="#E0E0E0"/>
</svg>
