<svg width="40" height="40" viewBox="0 0 40 40" fill="none" xmlns="http://www.w3.org/2000/svg">
<path d="M20 15.52L17.0633 16.3383L19.6667 17.8067L18.8483 19.2583L16.245 17.79L17.0633 20.7267L15.4583 21.1733L14.1917 16.6333L10.8333 14.7567V17.9883L14.1667 21.3217L12.9883 22.5L10.8333 20.345V23.3333H9.16667V20.345L7.01167 22.5L5.83333 21.3217L9.16667 17.9883V14.7567L5.80833 16.6333L4.54 21.1733L2.935 20.7267L3.75333 17.79L1.15 19.26L0.331667 17.8083L2.935 16.34L0 15.52L0.448333 13.9167L4.99 15.1833L8.29333 13.3333L4.98833 11.485L0.448333 12.75L0 11.1467L2.93667 10.3283L0.331667 8.85833L1.15 7.40667L3.75333 8.875L2.93667 5.93833L4.54167 5.49L5.80833 10.0317L9.16667 11.9117V8.67833L5.83333 5.345L7.01167 4.16667L9.16667 6.32167V3.33333H10.8333V6.32167L12.9883 4.16667L14.1667 5.345L10.8333 8.67833V11.9117L14.1933 10.0333L15.46 5.49167L17.065 5.94L16.245 8.875L18.8483 7.40667L19.6667 8.85833L17.0633 10.3267L20 11.1467L19.5517 12.75L15.01 11.4833L11.7067 13.3333L15.01 15.1817L19.5517 13.915L20 15.52V15.52ZM26.6667 5.83333V18.375C26.6667 20.9917 25.81 22.1883 24.3167 23.4567C22.6317 24.8883 21.6667 26.9683 21.6667 29.1667C21.6667 33.3017 25.0317 36.6667 29.1667 36.6667C33.3017 36.6667 36.6667 33.3017 36.6667 29.1667C36.6667 26.9683 35.7017 24.8883 34.0183 23.4567C32.5233 22.1867 31.6667 20.99 31.6667 18.375V5.83333C31.6667 4.455 30.545 3.33333 29.1667 3.33333C27.7883 3.33333 26.6667 4.455 26.6667 5.83333V5.83333ZM35 5.83333V18.375C35 19.3533 35.43 20.2833 36.175 20.9167C38.5133 22.9033 40 25.86 40 29.1667C40 35.15 35.1517 40 29.1667 40C23.1817 40 18.3333 35.15 18.3333 29.1667C18.3333 25.86 19.82 22.9033 22.1583 20.9183C22.9033 20.2833 23.3333 19.3517 23.3333 18.375V5.83333C23.3333 2.61 25.945 0 29.1667 0C32.3883 0 35 2.61 35 5.83333V5.83333ZM35 29.1667C35 32.39 32.3883 35 29.1667 35C25.945 35 23.3333 32.39 23.3333 29.1667C23.3333 27.265 24.3317 25.6933 25.655 24.5317C27.3383 23.05 28.3333 21.6367 28.3333 19.1633V18.3333H30V19.1633C30 21.64 30.9917 23.0467 32.6783 24.5317C34.0017 25.6933 35 27.265 35 29.1667Z" fill="black"/>
</svg>
