<svg width="40" height="40" viewBox="0 0 40 40" fill="none" xmlns="http://www.w3.org/2000/svg">
<path d="M29.1667 3.33333C30.545 3.33333 31.6667 4.455 31.6667 5.83333V18.375C31.6667 20.99 32.5233 22.1867 34.0183 23.4583C35.7017 24.8883 36.6667 26.9683 36.6667 29.1667C36.6667 33.3017 33.3017 36.6667 29.1667 36.6667C25.0317 36.6667 21.6667 33.3017 21.6667 29.1667C21.6667 26.9683 22.6317 24.8883 24.3167 23.4583C25.81 22.19 26.6667 20.9933 26.6667 18.375V5.83333C26.6667 4.455 27.7883 3.33333 29.1667 3.33333V3.33333ZM29.1667 0C25.945 0 23.3333 2.61167 23.3333 5.83333V18.375C23.3333 19.3533 22.9033 20.285 22.1583 20.9167C19.82 22.9033 18.3333 25.8583 18.3333 29.1667C18.3333 35.15 23.1817 40 29.1667 40C35.1517 40 40 35.15 40 29.1667C40 25.8583 38.5133 22.9033 36.175 20.9167C35.43 20.2833 35 19.3533 35 18.375V5.83333C35 2.61167 32.3883 0 29.1667 0ZM32.6783 24.53C30.9917 23.0467 30 21.64 30 19.1633V8.33333H28.3333V19.1633C28.3333 21.6367 27.3383 23.05 25.655 24.53C24.3317 25.6933 23.3333 27.2667 23.3333 29.1667C23.3333 32.3883 25.945 35 29.1667 35C32.3883 35 35 32.3883 35 29.1667C35 27.2667 34.0017 25.695 32.6783 24.53ZM10.8333 10C13.1317 10 15 11.87 15 14.1667C15 16.4633 13.1317 18.3333 10.8333 18.3333C8.535 18.3333 6.66667 16.4633 6.66667 14.1667C6.66667 11.87 8.535 10 10.8333 10ZM10.8333 8.33333C7.61167 8.33333 5 10.945 5 14.1667C5 17.3883 7.61167 20 10.8333 20C14.055 20 16.6667 17.3883 16.6667 14.1667C16.6667 10.945 14.055 8.33333 10.8333 8.33333ZM3.33333 14.1667C3.33333 13.8817 3.38667 13.6117 3.41833 13.3333H0V15H3.41833C3.38667 14.7217 3.33333 14.4517 3.33333 14.1667ZM6.175 8.33167L3.76167 5.91667L2.58333 7.095L4.99667 9.50833C5.34667 9.07333 5.73833 8.68 6.175 8.33167ZM16.67 9.50833L19.0817 7.095L17.9033 5.91667L15.49 8.33C15.9283 8.68 16.32 9.07167 16.67 9.50833V9.50833ZM10.8333 6.66667C11.1183 6.66667 11.39 6.72 11.6667 6.75V3.33333H10V6.75C10.2767 6.72 10.5483 6.66667 10.8333 6.66667ZM10.8333 21.6667C10.5483 21.6667 10.2767 21.6133 10 21.5833V25H11.6667V21.5833C11.39 21.6133 11.1183 21.6667 10.8333 21.6667ZM18.2483 13.3333C18.28 13.6117 18.3333 13.8817 18.3333 14.1667L18.2483 15H21.6667V13.3333H18.2483ZM4.99667 18.8233L2.58333 21.2383L3.76167 22.4167L6.175 20.0033C5.73833 19.6533 5.34667 19.26 4.99667 18.8233ZM15.49 20.0033L17.9033 22.4167L19.0817 21.2383L16.67 18.825C16.32 19.2617 15.9283 19.6533 15.49 20.0033Z" fill="black"/>
</svg>
