<svg width="100%" height="100%" viewBox="0 0 20 24" fill="none" xmlns="http://www.w3.org/2000/svg">
<path fill-rule="evenodd" clip-rule="evenodd" d="M14.306 22.704L12.513 18L13.048 22.85C12.109 22.942 11.081 23 9.971 23C8.906 23 7.916 22.947 7.011 22.864L7.547 18L5.747 22.721C3.652 22.439 2.142 22.014 1.401 21.773L6.927 11H13.199L18.609 21.746C17.873 21.987 16.379 22.415 14.306 22.704ZM5.59 5.526L3.147 6.328L2.121 4.698L6.214 1.237C6.528 2.1 7.615 4.5 10.016 4.5C12.558 4.5 13.525 1.894 13.741 1.189L17.91 4.699L16.885 6.328L14.432 5.523L13.265 10H6.85L5.59 5.526ZM12.497 1.618C12.114 2.418 11.348 3.5 10.016 3.5C8.716 3.5 7.905 2.429 7.471 1.601C9.401 2.207 10.779 2.151 12.497 1.618ZM14.133 10.633L15.131 6.805L17.315 7.521L19.221 4.495L13.865 -0.0130005C12.986 0.425 10.233 2.005 6.143 -0.0120005L0.811 4.496L2.717 7.521L4.91 6.802L5.99 10.635L0 22.312L0.507 22.518C0.657 22.579 4.232 24 9.971 24C15.71 24 19.346 22.553 19.497 22.49L20 22.287L14.133 10.633V10.633Z" fill="black"/>
</svg>
