<svg width="100%" height="100%" viewBox="0 0 12 24" fill="none" xmlns="http://www.w3.org/2000/svg">
<path fill-rule="evenodd" clip-rule="evenodd" d="M5.601 1.47C5.601 1.249 5.78 1.07 6 1.07C6.221 1.07 6.4 1.249 6.4 1.47C6.4 1.691 6.221 1.87 6 1.87C5.78 1.87 5.601 1.691 5.601 1.47V1.47ZM8.868 23L6.581 7H5.419L3.133 23H1V6.482C1.7 6.379 2.319 6.129 2.843 5.72C3.624 5.109 4.149 4.149 4.388 3H7.612C7.851 4.149 8.376 5.11 9.158 5.72C9.683 6.131 10.299 6.387 11 6.492V23H8.868V23ZM3.374 3C3.168 3.825 2.777 4.502 2.227 4.932C1.88 5.203 1.468 5.38 1 5.472V3H3.374V3ZM11 3V5.464C10.535 5.374 10.12 5.202 9.774 4.932C9.224 4.502 8.833 3.825 8.626 3H11V3ZM11 2H1V1H11V2ZM0 0V24H4L6 10L8 24H12V0H0Z" fill="black"/>
</svg>
