<svg width="100%" height="100%" viewBox="0 0 24 24" fill="none" xmlns="http://www.w3.org/2000/svg">
<path fill-rule="evenodd" clip-rule="evenodd" d="M20.774 20.892L20.499 20.052L22.613 19.546L22.802 20.39L20.774 20.892V20.892ZM17.965 12.333L16.991 12.489V20.995H6.987V12.489L6.011 12.334L3.813 19.102L1.596 18.572L4.544 5.361L8.947 3.606V2.344C10.184 3.187 11.613 3.206 12.104 3.206C13.231 3.191 14.234 2.887 14.994 2.361V3.605L19.43 5.362L22.394 18.571L20.185 19.098L17.965 12.333V12.333ZM6.987 21.995H16.991V23.001H6.987V21.995ZM1.189 20.398L1.378 19.547L3.503 20.056L3.231 20.894L1.189 20.398V20.398ZM12.022 0.988998C13.231 0.988998 14.034 1.235 14.523 1.462C13.92 1.918 13.059 2.193 12.091 2.206C11.085 2.207 10.135 1.936 9.471 1.47C9.982 1.239 10.803 0.993998 12.022 0.988998V0.988998ZM20.29 4.627L15.994 2.926V1.29C15.644 0.922998 14.565 -0.0110016 11.985 -0.0110016C9.407 -0.00200159 8.295 0.958998 7.947 1.316V2.929L3.683 4.628L0 21.138L3.896 22.083L5.987 15.647V24H17.991V15.617L20.114 22.085L23.992 21.126L20.29 4.627V4.627Z" fill="black"/>
</svg>
