<svg width="100%" height="100%" viewBox="0 0 24 24" fill="none" xmlns="http://www.w3.org/2000/svg">
<path fill-rule="evenodd" clip-rule="evenodd" d="M20.2071 8.527L18.0151 7.122V23H5.99606V7.152L3.80206 8.47L1.37606 5.551L6.20806 1H17.8051L22.6301 5.584L20.2071 8.527ZM18.2031 0H5.81106L0.00805664 5.467L3.58106 9.768L4.99606 8.919V24H19.0151V8.95L20.4161 9.847L23.9921 5.5L18.2031 0Z" fill="black"/>
<path d="M12 21C12.2761 21 12.5 20.7761 12.5 20.5C12.5 20.2239 12.2761 20 12 20C11.7239 20 11.5 20.2239 11.5 20.5C11.5 20.7761 11.7239 21 12 21Z" fill="black"/>
<path d="M12 18C12.2761 18 12.5 17.7761 12.5 17.5C12.5 17.2239 12.2761 17 12 17C11.7239 17 11.5 17.2239 11.5 17.5C11.5 17.7761 11.7239 18 12 18Z" fill="black"/>
<path d="M12 15C12.2761 15 12.5 14.7761 12.5 14.5C12.5 14.2239 12.2761 14 12 14C11.7239 14 11.5 14.2239 11.5 14.5C11.5 14.7761 11.7239 15 12 15Z" fill="black"/>
<path d="M12 12C12.2761 12 12.5 11.7761 12.5 11.5C12.5 11.2239 12.2761 11 12 11C11.7239 11 11.5 11.2239 11.5 11.5C11.5 11.7761 11.7239 12 12 12Z" fill="black"/>
<path d="M12 9.02679C12.2761 9.02679 12.5 8.80294 12.5 8.52679C12.5 8.25065 12.2761 8.02679 12 8.02679C11.7239 8.02679 11.5 8.25065 11.5 8.52679C11.5 8.80294 11.7239 9.02679 12 9.02679Z" fill="black"/>
<mask id="mask0" mask-type="alpha" maskUnits="userSpaceOnUse" x="7" y="0" width="10" height="6">
<path d="M7 0L12 6L17 0H7Z" fill="white"/>
</mask>
<g mask="url(#mask0)">
<path d="M7 0L12 6L17 0H7Z" stroke="black" stroke-width="2" stroke-miterlimit="3" stroke-linecap="square"/>
</g>
</svg>
