<svg width="100%" height="100%" viewBox="0 0 24 22" fill="none" xmlns="http://www.w3.org/2000/svg">
<path fill-rule="evenodd" clip-rule="evenodd" d="M22 4L24 21L14.028 22L12.06 15.615L10.059 22L0 21L2 4V0H22V4ZM21 4H13.154L15.116 7.397C15.235 7.602 15.204 7.924 14.933 8.08C14.665 8.236 14.37 8.104 14.25 7.897L12 4L9.75 7.897C9.595 8.165 9.276 8.201 9.067 8.08C8.797 7.924 8.764 7.605 8.884 7.397L10.845 4H3V4.059L1.112 20.105L9.348 20.925L12 12.393L14.743 20.923L22.888 20.106L21 4V4ZM3 3H21V1H3V3Z" fill="black"/>
</svg>
