<svg width="100%" height="100%" viewBox="0 0 24 24" fill="none" xmlns="http://www.w3.org/2000/svg">
<path fill-rule="evenodd" clip-rule="evenodd" d="M10.726 3.198C10.895 3.537 11.518 4.099 12.008 4.364C12.517 4.092 13.121 3.527 13.287 3.198C13.127 3.127 12.763 3.016 12.005 2.984C11.248 3.014 10.884 3.127 10.726 3.198ZM12.006 1.983L12.034 1.984C16.469 2.155 13.336 5.037 12.022 5.44L12.006 5.444C10.698 5.059 7.513 2.144 12.006 1.983V1.983ZM11.997 11.898C11.665 11.898 11.397 12.167 11.397 12.498C11.397 12.829 11.665 13.098 11.997 13.098C12.328 13.098 12.597 12.829 12.597 12.498C12.597 12.167 12.328 11.898 11.997 11.898ZM11.997 14.89C11.665 14.89 11.397 15.159 11.397 15.49C11.397 15.821 11.665 16.091 11.997 16.091C12.328 16.091 12.597 15.821 12.597 15.49C12.597 15.159 12.328 14.89 11.997 14.89V14.89ZM11.997 8.891C11.665 8.891 11.397 9.16 11.397 9.491C11.397 9.822 11.665 10.091 11.997 10.091C12.328 10.091 12.597 9.822 12.597 9.491C12.597 9.16 12.328 8.891 11.997 8.891ZM20.759 21.519L22.824 21.017L19.555 5.326L16.297 3.602C16.37 5.546 15.471 7.396 14.639 9.229C14.639 9.229 12.473 7.346 12.006 6.972C11.495 7.384 9.372 9.228 9.372 9.228C8.513 7.327 7.641 5.488 7.716 3.591L4.438 5.326L1.173 21.05L3.238 21.581L6.007 11.857L6.999 12V23H16.999V12L17.982 11.856L20.759 21.519V21.519ZM9.723 7.578C10.469 6.912 12.006 5.696 12.006 5.696C12.006 5.696 13.463 6.842 14.289 7.578C16.261 3.227 15.288 1.007 12.044 1H11.983C8.729 1 7.748 3.22 9.723 7.578ZM23.999 21.748L20.065 22.719L17.992 15.511L17.97 24H5.988V15.576L3.934 22.792L0 21.78L3.555 4.662L7.955 2.333C8.818 -0.0589993 11.538 6.97692e-07 12.046 6.97692e-07C12.84 0.0020007 15.258 0.0990007 16.062 2.345L20.439 4.662L23.999 21.748V21.748ZM11.997 17.919C11.665 17.919 11.397 18.187 11.397 18.518C11.397 18.849 11.665 19.118 11.997 19.118C12.328 19.118 12.597 18.849 12.597 18.518C12.597 18.187 12.328 17.919 11.997 17.919ZM12.597 21.498C12.597 21.829 12.328 22.097 11.997 22.097C11.665 22.097 11.397 21.829 11.397 21.498C11.397 21.167 11.665 20.898 11.997 20.898C12.328 20.898 12.597 21.167 12.597 21.498Z" fill="black"/>
</svg>
