<svg width="100%" height="100%" viewBox="0 0 24 24" fill="none" xmlns="http://www.w3.org/2000/svg">
<path fill-rule="evenodd" clip-rule="evenodd" d="M20.207 8.53L18.014 7.125V23.009H5.99V7.155L3.795 8.473L1.369 5.553L6.202 1H7.626C8.136 2.754 9.644 4.5 12.003 4.5C14.395 4.5 15.879 2.801 16.384 1H17.804L22.63 5.586L20.207 8.53V8.53ZM15.349 1C14.883 2.322 13.745 3.5 12.003 3.5C10.273 3.5 9.135 2.322 8.661 1H15.349ZM18.202 0H5.805L0 5.469L3.574 9.772L4.99 8.922V24.009H19.014V8.953L20.416 9.851L23.993 5.502L18.202 0V0Z" fill="black"/>
</svg>
