<svg width="100%" height="100%" viewBox="0 0 24 24" fill="none" xmlns="http://www.w3.org/2000/svg">
<path fill-rule="evenodd" clip-rule="evenodd" d="M7.72205 19.994L9.90705 16.994L10.7151 17.583L8.53005 20.583L7.72205 19.994V19.994ZM14.1371 16.994L16.3221 19.994L15.5131 20.583L13.3281 17.583L14.1371 16.994V16.994ZM12.0021 3.494C11.1181 3.494 10.4811 3.343 10.1691 3.209C10.4811 3.076 11.1181 2.925 12.0021 2.925C12.8861 2.925 13.5231 3.076 13.8351 3.209C13.5231 3.343 12.8861 3.494 12.0021 3.494ZM18.0101 13.749L17.0391 13.916L17.0231 23H12.5111V4.478C13.7531 4.403 15.0021 4.043 15.0021 3.209C15.0021 2.261 13.3861 1.925 12.0021 1.925C10.6181 1.925 9.00205 2.261 9.00205 3.209C9.00205 4.047 10.2631 4.406 11.5111 4.479V23H7.00005L7.01705 13.918L6.04705 13.747L3.18005 21.684L1.21205 21.214L4.76905 6.619L9.04605 4.916C8.00505 3.994 7.81705 3.25 7.87105 2.776C8.05605 1.156 11.0261 1 12.0001 1C12.9741 1 16.0201 1.258 16.1461 2.81C16.1851 3.282 16.0991 3.994 14.9101 4.888L19.2531 6.619L22.7931 21.216L20.8411 21.69L18.0101 13.749V13.749ZM20.1031 5.881L16.6711 4.513C17.0151 3.98 17.1931 3.334 17.1431 2.728C16.9171 0.00999999 12.1841 0 12.0091 0C8.14605 0.015 6.98805 1.695 6.87705 2.662C6.81005 3.255 6.99205 3.911 7.37405 4.505L3.92005 5.881L0.00305176 21.952L3.81705 22.864L6.01205 16.789L5.99805 24H18.0211L18.0351 16.794L20.2021 22.876L24.0001 21.95L20.1031 5.881V5.881Z" fill="black"/>
</svg>
